<?xml version="1.0" standalone="no"?><!DOCTYPE svg PUBLIC "-//W3C//DTD SVG 1.1//EN" "http://www.w3.org/Graphics/SVG/1.1/DTD/svg11.dtd"><svg t="1706174130650" class="icon" viewBox="0 0 1024 1024" version="1.1" xmlns="http://www.w3.org/2000/svg" p-id="4288" xmlns:xlink="http://www.w3.org/1999/xlink" width="64" height="64"><path d="M502.839943 16.412836c-279.366913 0-505.835514 225.766185-505.835514 504.258845 0 278.498689 226.467597 504.265879 505.835514 504.265879 279.365908 0 505.839534-225.76719 505.839534-504.265879C1008.679477 242.179021 782.205851 16.412836 502.839943 16.412836L502.839943 16.412836zM502.839943 957.702512c-242.114708 0-438.390444-195.667779-438.390444-437.030831 0-241.358028 196.275736-437.025806 438.390444-437.025806s438.395469 195.667779 438.395469 437.025806C941.234407 762.034733 744.954651 957.702512 502.839943 957.702512L502.839943 957.702512zM688.316147 394.610487c27.937897 0 50.582044-22.576819 50.582044-50.427291s-22.644147-50.427291-50.582044-50.427291c-27.939907 0-50.582044 22.576819-50.582044 50.427291S660.37624 394.610487 688.316147 394.610487L688.316147 394.610487zM736.581924 495.458036c-18.6256 0-33.725047 15.056237-33.725047 33.620539l0 0c-16.056101 95.394021-99.76026 168.088626-200.016934 168.088626-100.252655 0-184.006053-72.694605-200.062154-168.088626l0 0c0-18.564302-15.099448-33.620539-33.725047-33.620539-18.61957 0-33.719018 15.056237-33.719018 33.620539l-0.17686 0c0.066323 0.530581 0.149728 1.055132 0.216051 1.585713 0.104508 2.166539 0.415019 4.271779 0.905404 6.305672 20.024404 128.820617 131.733787 227.43028 266.561624 227.43028 135.059966 0 246.923098-98.942281 266.670152-228.082452 0.35975-1.623899 0.596903-3.299047 0.707441-5.007357 0.100489-0.745627-0.011054-1.487234 0.083406-2.232861l0 0C770.300942 510.514273 755.206519 495.458036 736.581924 495.458036L736.581924 495.458036zM317.368763 394.610487c27.937897 0 50.582044-22.576819 50.582044-50.427291s-22.649171-50.427291-50.582044-50.427291c-27.937897 0-50.582044 22.576819-50.582044 50.427291C266.781695 372.032663 289.430866 394.610487 317.368763 394.610487L317.368763 394.610487zM317.368763 394.610487"  p-id="4289"></path></svg>